<?xml version="1.0" standalone="no"?>
<!DOCTYPE svg PUBLIC "-//W3C//DTD SVG 20010904//EN"
 "http://www.w3.org/TR/2001/REC-SVG-20010904/DTD/svg10.dtd">
<svg version="1.0" xmlns="http://www.w3.org/2000/svg"
 width="700.000000pt" height="700.000000pt" viewBox="0 0 700.000000 700.000000"
 preserveAspectRatio="xMidYMid meet">
<metadata>
Created by potrace 1.14, written by Peter Selinger 2001-2017
</metadata>
<g transform="translate(0.000000,700.000000) scale(0.100000,-0.100000)"
fill="#000000" stroke="none">
<path d="M4458 5135 c-2 -2 -41 -6 -88 -9 -47 -4 -92 -9 -100 -11 -8 -2 -36
-6 -61 -9 -82 -9 -407 -87 -433 -104 -6 -4 -139 -7 -296 -8 -157 -1 -296 -4
-310 -8 -14 -3 -45 -8 -70 -11 -25 -3 -56 -7 -70 -10 -14 -3 -41 -7 -60 -10
-159 -25 -404 -101 -585 -181 -22 -10 -42 -18 -45 -19 -19 -3 -208 -107 -299
-164 -180 -113 -297 -207 -456 -366 -83 -82 -159 -161 -170 -175 -273 -339
-438 -662 -539 -1050 -19 -74 -38 -155 -42 -180 -4 -25 -8 -47 -9 -50 -2 -7
-17 -120 -21 -155 -2 -16 -6 -85 -10 -153 -6 -115 -6 -122 11 -116 14 6 16 4
10 -7 -7 -11 -6 -12 6 -2 21 17 802 17 792 0 -4 -8 -1 -7 9 1 20 16 161 15
151 -2 -4 -7 -2 -7 8 1 20 16 362 16 352 -1 -5 -7 -2 -7 8 1 10 8 78 11 219
11 l204 -1 38 -39 c41 -43 51 -61 135 -263 74 -175 159 -337 225 -430 37 -52
121 -144 147 -162 32 -22 72 -23 98 -1 22 18 25 72 7 127 l-17 53 51 47 c67
61 81 92 78 173 -3 81 -32 144 -120 253 -66 82 -71 105 -14 62 64 -47 124 -77
148 -72 63 12 160 166 186 295 11 58 13 153 2 173 -18 34 -74 48 -214 53 -147
4 -166 6 -269 30 -111 26 -153 53 -198 126 -10 16 -17 48 -17 76 0 44 4 53 43
91 91 91 253 180 382 210 89 20 99 22 187 22 101 1 145 -5 248 -33 321 -87
569 -385 597 -718 7 -79 -7 -72 131 -71 62 0 81 -3 75 -12 -5 -9 -4 -9 8 0 19
15 161 15 152 -1 -5 -8 -2 -7 8 0 20 17 951 17 961 1 6 -9 8 -9 8 0 0 10 51
12 213 12 116 0 227 0 245 0 l33 1 -6 123 c-3 67 -8 133 -10 147 -2 14 -7 50
-10 80 -4 30 -9 62 -10 70 -97 487 -239 813 -513 1180 -78 103 -333 373 -405
428 -28 21 -28 22 -11 39 26 27 98 142 121 193 45 104 -29 137 -180 80 -28
-11 -52 -18 -53 -17 -2 1 47 36 107 77 120 80 139 100 139 143 0 86 -257 197
-540 233 -45 5 -288 13 -292 9z"/>
<path d="M1265 2320 c-3 -6 1 -7 9 -4 18 7 21 14 7 14 -6 0 -13 -4 -16 -10z"/>
<path d="M1665 2320 c-3 -6 1 -7 9 -4 18 7 21 14 7 14 -6 0 -13 -4 -16 -10z"/>
<path d="M1825 2320 c-3 -6 1 -7 9 -4 18 7 21 14 7 14 -6 0 -13 -4 -16 -10z"/>
<path d="M2386 2322 c-3 -5 1 -9 9 -9 8 0 12 4 9 9 -3 4 -7 8 -9 8 -2 0 -6 -4
-9 -8z"/>
</g>
</svg>
